{"title":"L'ange Noir  - 1994 - Jean-Claude Brisseau","uid":9034808,"size":1775333657,"categoryP":"video","categoryS":"movies","magnet":"?xt=urn:btih:db1c19ee532c69d273e22b1f828496ff562fcfe1&amp;dn=L%27ange+Noir++-+1994+-+Jean-Claude+Brisseau&amp;tr=udp%3A%2F%2Ftracker.openbittorrent.com%3A80&amp;tr=udp%3A%2F%2Fopen.demonii.com%3A1337&amp;tr=udp%3A%2F%2Ftracker.coppersurfer.tk%3A6969&amp;tr=udp%3A%2F%2Fexodus.desync.com%3A6969","seeders":3,"leechers":5,"uploader":"cavallone","files":1,"time":1381490607,"description":"Plot: A visitor comes to the home of Stephane, the wife of an important magistrate. She, claiming attempted rape, calmly shoots him. The visitor is the legendary gangster Wadek Aslanian who was beloved as a latter day Robin Hood. Stephane's husband hires a lawyer, Paul, to defend her. Paul learns many disturbing things about Stephane's sordid past when he starts receiving anonymous letters describing her exploits which included prostitution, performing in porno-movies, and most interestingly having a liaison with Aslanian. The judge is ignorant of his wife's past. Despite her dark and mysterious past, Paul cannot help but fall in love with Stephane.\n\n\nRip Specs:\n\n\nFormat                                   : Matroska\nFormat version                           : Version 2\nFile size                                : 1.65 GiB\nDuration                                 : 1h 34mn\nOverall bit rate                         : 2 495 Kbps\nWriting application                      : HandBrake 0.9.9\nWriting library                          : libmkv 0.6.5\n\nVideo\nID                                       : 1\nFormat                                   : AVC\nFormat/Info                              : Advanced Video Codec\nFormat profile                           : &lt;a class=&quot;__cf_email__&quot; href=&quot;/cdn-cgi/l/email-protection&quot; data-cfemail=&quot;b6fedfd1def6fa859886&quot;&gt;[email&amp;#160;protected]&lt;/a&gt;&lt;script cf-hash='f9e31' type=&quot;text/javascript&quot;&gt;\n/* &lt;![CDATA[ */!function(){try{var t=&quot;currentScript&quot;in document?document.currentScript:function(){for(var t=document.getElementsByTagName(&quot;script&quot;),e=t.length;e--;)if(t[e].getAttribute(&quot;cf-hash&quot;))return t[e]}();if(t&amp;&amp;t.previousSibling){var e,r,n,i,c=t.previousSibling,a=c.getAttribute(&quot;data-cfemail&quot;);if(a){for(e=&quot;&quot;,r=parseInt(a.substr(0,2),16),n=2;a.length-n;n+=2)i=parseInt(a.substr(n,2),16)^r,e+=String.fromCharCode(i);e=document.createTextNode(e),c.parentNode.replaceChild(e,c)}}}catch(u){}}();/* ]]&gt; */&lt;/script&gt;\nFormat settings, CABAC                   : Yes\nFormat settings, ReFrames                : 4 frames\nCodec ID                                 : V_MPEG4/ISO/AVC\nDuration                                 : 1h 34mn\nBit rate                                 : 2 280 Kbps\nWidth                                    : 714 pixels\nHeight                                   : 572 pixels\nDisplay aspect ratio                     : 4:3\nOriginal display aspect ratio            : 4:3\nFrame rate mode                          : Constant\nFrame rate                               : 25.000 fps\nColor space                              : YUV\nChroma subsampling                       : 4:2:0\nBit depth                                : 8 bits\nScan type                                : Progressive\nBits/(Pixel*Frame)                       : 0.223\nStream size                              : 1.49 GiB (90%)\nWriting library                          : x264 core 130 r2273 b3065e6\nEncoding settings                        : cabac=1 // deblock=1:-2:-2 / analyse=0x3:0x113 / me=hex / subme=7 / psy=1 / psy_rd=1.00:0.00 // me_range=16 / chroma_me=1 / trellis=2 / 8x8dct=1 / cqm=0 / deadzone=21,11 / fast_pskip=0 / chroma_qp_offset=-2 / threads=1 / lookahead_threads=1 / sliced_threads=0 / nr=0 / decimate=1 / interlaced=0 / bluray_compat=0 / constrained_intra=0 / bframes=3 / b_pyramid=2 / b_adapt=2 / b_bias=0 / direct=3 / weightb=1 / open_gop=0 / weightp=2 / keyint=250 / keyint_min=25 / scenecut=40 / intra_refresh=0 / rc_lookahead=60 / rc=abr / mbtree=1 / bitrate=2280 / ratetol=1.0 / qcomp=0.60 / qpmin=0 / qpmax=69 / qpstep=4 / ip_ratio=1.40 / aq=1:1.00\nLanguage                                 : English\nDefault                                  : Yes\nForced                                   : No\nColor primaries                          : BT.601 PAL\nTransfer characteristics                 : BT.709\nMatrix coefficients                      : BT.601\n\nAudio\nID                                       : 2\nFormat                                   : AC-3\nFormat/Info                              : Audio Coding 3\nMode extension                           : CM (complete main)\nFormat settings, Endianness              : Big\nCodec ID                                 : A_AC3\nDuration                                 : 1h 34mn\nBit rate mode                            : Constant\nBit rate                                 : 192 Kbps\nChannel(s)                               : 2 channels\nChannel positions                        : Front: L R\nSampling rate                            : 48.0 KHz\nBit depth                                : 16 bits\nCompression mode                         : Lossy\nStream size                              : 130 MiB (8%)\nLanguage                                 : French\nDefault                                  : Yes\nForced                                   : No\n\nText\nID                                       : 3\nFormat                                   : VobSub\nCodec ID                                 : S_VOBSUB\nCodec ID/Info                            : The same subtitle format used on DVDs\nLanguage                                 : English\nDefault                                  : No\nForced                                   : No\n\nMenu\n00:00:00.000                             : Chapter 1\n00:09:15.440                             : Chapter 2\n00:20:15.920                             : Chapter 3\n00:31:27.920                             : Chapter 4\n00:39:50.960                             : Chapter 5\n00:49:06.320                             : Chapter 6\n01:02:52.400                             : Chapter 7\n01:12:09.200                             : Chapter 8\n01:22:31.760                             : Chapter 9\n\n\nMy rip, enjoy!","torrent":{"xt":"urn:btih:db1c19ee532c69d273e22b1f828496ff562fcfe1","amp;dn":"L%27ange+Noir++-+1994+-+Jean-Claude+Brisseau","amp;tr":["udp%3A%2F%2Ftracker.openbittorrent.com%3A80","udp%3A%2F%2Fopen.demonii.com%3A1337","udp%3A%2F%2Ftracker.coppersurfer.tk%3A6969","udp%3A%2F%2Fexodus.desync.com%3A6969"],"infoHash":"db1c19ee532c69d273e22b1f828496ff562fcfe1","infoHashBuffer":{"type":"Buffer","data":[219,28,25,238,83,44,105,210,115,226,43,31,130,132,150,255,86,47,207,225]},"announce":[],"urlList":[]}}